<?xml version="1.0" encoding="UTF-8" standalone="no"?>
<!DOCTYPE svg PUBLIC "-//W3C//DTD SVG 1.1//EN"
 "http://www.w3.org/Graphics/SVG/1.1/DTD/svg11.dtd">
<!-- Generated by graphviz version 9.0.0 (20230911.1827)
 -->
<!-- Pages: 1 -->
<svg width="734pt" height="1268pt"
 viewBox="0.00 0.00 734.20 1268.00" xmlns="http://www.w3.org/2000/svg" xmlns:xlink="http://www.w3.org/1999/xlink">
<g id="graph0" class="graph" transform="scale(1 1) rotate(0) translate(4 1264)">
<polygon fill="white" stroke="none" points="-4,4 -4,-1264 730.2,-1264 730.2,4 -4,4"/>
<!-- 0 -->
<g id="node1" class="node">
<title>0</title>
<ellipse fill="none" stroke="black" cx="376.11" cy="-1242" rx="27" ry="18"/>
<text text-anchor="middle" x="376.11" y="-1236.58" font-family="Times New Roman,serif" font-size="14.00">e</text>
</g>
<!-- 1 -->
<g id="node2" class="node">
<title>1</title>
<ellipse fill="none" stroke="black" cx="336.11" cy="-1170" rx="27" ry="18"/>
<text text-anchor="middle" x="336.11" y="-1164.58" font-family="Times New Roman,serif" font-size="14.00">s</text>
</g>
<!-- 0&#45;&gt;1 -->
<g id="edge1" class="edge">
<title>0&#45;&gt;1</title>
<path fill="none" stroke="black" d="M366.83,-1224.76C362.13,-1216.55 356.32,-1206.37 351.02,-1197.09"/>
<polygon fill="black" stroke="black" points="354.08,-1195.41 346.08,-1188.46 348.01,-1198.88 354.08,-1195.41"/>
</g>
<!-- 94 -->
<g id="node63" class="node">
<title>94</title>
<ellipse fill="none" stroke="black" cx="417.11" cy="-1170" rx="36.09" ry="18"/>
<text text-anchor="middle" x="417.11" y="-1164.58" font-family="Times New Roman,serif" font-size="14.00">ePrime</text>
</g>
<!-- 0&#45;&gt;94 -->
<g id="edge62" class="edge">
<title>0&#45;&gt;94</title>
<path fill="none" stroke="black" d="M385.62,-1224.76C390.36,-1216.67 396.22,-1206.66 401.59,-1197.49"/>
<polygon fill="black" stroke="black" points="404.56,-1199.34 406.6,-1188.94 398.52,-1195.8 404.56,-1199.34"/>
</g>
<!-- 2 -->
<g id="node3" class="node">
<title>2</title>
<ellipse fill="none" stroke="black" cx="296.11" cy="-1098" rx="27" ry="18"/>
<text text-anchor="middle" x="296.11" y="-1092.58" font-family="Times New Roman,serif" font-size="14.00">t</text>
</g>
<!-- 1&#45;&gt;2 -->
<g id="edge2" class="edge">
<title>1&#45;&gt;2</title>
<path fill="none" stroke="black" d="M326.83,-1152.76C322.13,-1144.55 316.32,-1134.37 311.02,-1125.09"/>
<polygon fill="black" stroke="black" points="314.08,-1123.41 306.08,-1116.46 308.01,-1126.88 314.08,-1123.41"/>
</g>
<!-- 28 -->
<g id="node20" class="node">
<title>28</title>
<ellipse fill="none" stroke="black" cx="412.11" cy="-1098" rx="36.09" ry="18"/>
<text text-anchor="middle" x="412.11" y="-1092.58" font-family="Times New Roman,serif" font-size="14.00">sPrime</text>
</g>
<!-- 1&#45;&gt;28 -->
<g id="edge19" class="edge">
<title>1&#45;&gt;28</title>
<path fill="none" stroke="black" d="M351.49,-1154.83C361.75,-1145.38 375.47,-1132.75 387.26,-1121.88"/>
<polygon fill="black" stroke="black" points="389.33,-1124.73 394.32,-1115.38 384.59,-1119.58 389.33,-1124.73"/>
</g>
<!-- 3 -->
<g id="node4" class="node">
<title>3</title>
<ellipse fill="none" stroke="black" cx="216.11" cy="-1026" rx="27" ry="18"/>
<text text-anchor="middle" x="216.11" y="-1020.58" font-family="Times New Roman,serif" font-size="14.00">f</text>
</g>
<!-- 2&#45;&gt;3 -->
<g id="edge3" class="edge">
<title>2&#45;&gt;3</title>
<path fill="none" stroke="black" d="M280.3,-1083.17C268.91,-1073.2 253.31,-1059.56 240.35,-1048.21"/>
<polygon fill="black" stroke="black" points="242.85,-1045.75 233.02,-1041.8 238.24,-1051.02 242.85,-1045.75"/>
</g>
<!-- 26 -->
<g id="node19" class="node">
<title>26</title>
<ellipse fill="none" stroke="black" cx="296.11" cy="-1026" rx="34.6" ry="18"/>
<text text-anchor="middle" x="296.11" y="-1020.58" font-family="Times New Roman,serif" font-size="14.00">tPrime</text>
</g>
<!-- 2&#45;&gt;26 -->
<g id="edge18" class="edge">
<title>2&#45;&gt;26</title>
<path fill="none" stroke="black" d="M296.11,-1079.7C296.11,-1072.41 296.11,-1063.73 296.11,-1055.54"/>
<polygon fill="black" stroke="black" points="299.61,-1055.62 296.11,-1045.62 292.61,-1055.62 299.61,-1055.62"/>
</g>
<!-- 4 -->
<g id="node5" class="node">
<title>4</title>
<ellipse fill="none" stroke="black" cx="124.11" cy="-954" rx="46.57" ry="18"/>
<text text-anchor="middle" x="124.11" y="-948.58" font-family="Times New Roman,serif" font-size="14.00">LPAREN</text>
</g>
<!-- 3&#45;&gt;4 -->
<g id="edge4" class="edge">
<title>3&#45;&gt;4</title>
<path fill="none" stroke="black" d="M198.8,-1011.83C186.04,-1002.13 168.38,-988.69 153.43,-977.31"/>
<polygon fill="black" stroke="black" points="155.83,-974.74 145.75,-971.47 151.59,-980.31 155.83,-974.74"/>
</g>
<!-- 6 -->
<g id="node6" class="node">
<title>6</title>
<ellipse fill="none" stroke="black" cx="216.11" cy="-954" rx="27" ry="18"/>
<text text-anchor="middle" x="216.11" y="-948.58" font-family="Times New Roman,serif" font-size="14.00">e</text>
</g>
<!-- 3&#45;&gt;6 -->
<g id="edge5" class="edge">
<title>3&#45;&gt;6</title>
<path fill="none" stroke="black" d="M216.11,-1007.7C216.11,-1000.41 216.11,-991.73 216.11,-983.54"/>
<polygon fill="black" stroke="black" points="219.61,-983.62 216.11,-973.62 212.61,-983.62 219.61,-983.62"/>
</g>
<!-- 24 -->
<g id="node18" class="node">
<title>24</title>
<ellipse fill="none" stroke="black" cx="309.11" cy="-954" rx="47.57" ry="18"/>
<text text-anchor="middle" x="309.11" y="-948.58" font-family="Times New Roman,serif" font-size="14.00">RPAREN</text>
</g>
<!-- 3&#45;&gt;24 -->
<g id="edge17" class="edge">
<title>3&#45;&gt;24</title>
<path fill="none" stroke="black" d="M233.6,-1011.83C246.5,-1002.13 264.35,-988.69 279.46,-977.31"/>
<polygon fill="black" stroke="black" points="281.35,-980.27 287.24,-971.46 277.14,-974.68 281.35,-980.27"/>
</g>
<!-- 7 -->
<g id="node7" class="node">
<title>7</title>
<ellipse fill="none" stroke="black" cx="204.11" cy="-882" rx="27" ry="18"/>
<text text-anchor="middle" x="204.11" y="-876.58" font-family="Times New Roman,serif" font-size="14.00">s</text>
</g>
<!-- 6&#45;&gt;7 -->
<g id="edge6" class="edge">
<title>6&#45;&gt;7</title>
<path fill="none" stroke="black" d="M213.14,-935.7C211.88,-928.32 210.37,-919.52 208.95,-911.25"/>
<polygon fill="black" stroke="black" points="212.43,-910.86 207.29,-901.6 205.53,-912.04 212.43,-910.86"/>
</g>
<!-- 22 -->
<g id="node17" class="node">
<title>22</title>
<ellipse fill="none" stroke="black" cx="285.11" cy="-882" rx="36.09" ry="18"/>
<text text-anchor="middle" x="285.11" y="-876.58" font-family="Times New Roman,serif" font-size="14.00">ePrime</text>
</g>
<!-- 6&#45;&gt;22 -->
<g id="edge16" class="edge">
<title>6&#45;&gt;22</title>
<path fill="none" stroke="black" d="M230.4,-938.5C239.5,-929.27 251.49,-917.11 261.92,-906.52"/>
<polygon fill="black" stroke="black" points="264.28,-909.11 268.81,-899.53 259.3,-904.2 264.28,-909.11"/>
</g>
<!-- 8 -->
<g id="node8" class="node">
<title>8</title>
<ellipse fill="none" stroke="black" cx="155.11" cy="-810" rx="27" ry="18"/>
<text text-anchor="middle" x="155.11" y="-804.58" font-family="Times New Roman,serif" font-size="14.00">t</text>
</g>
<!-- 7&#45;&gt;8 -->
<g id="edge7" class="edge">
<title>7&#45;&gt;8</title>
<path fill="none" stroke="black" d="M192.99,-865.12C186.97,-856.52 179.41,-845.72 172.62,-836.02"/>
<polygon fill="black" stroke="black" points="175.65,-834.25 167.05,-828.06 169.92,-838.26 175.65,-834.25"/>
</g>
<!-- 20 -->
<g id="node16" class="node">
<title>20</title>
<ellipse fill="none" stroke="black" cx="236.11" cy="-810" rx="36.09" ry="18"/>
<text text-anchor="middle" x="236.11" y="-804.58" font-family="Times New Roman,serif" font-size="14.00">sPrime</text>
</g>
<!-- 7&#45;&gt;20 -->
<g id="edge15" class="edge">
<title>7&#45;&gt;20</title>
<path fill="none" stroke="black" d="M211.69,-864.41C215.26,-856.59 219.62,-847.06 223.66,-838.23"/>
<polygon fill="black" stroke="black" points="226.75,-839.88 227.73,-829.33 220.38,-836.97 226.75,-839.88"/>
</g>
<!-- 9 -->
<g id="node9" class="node">
<title>9</title>
<ellipse fill="none" stroke="black" cx="59.11" cy="-738" rx="27" ry="18"/>
<text text-anchor="middle" x="59.11" y="-732.58" font-family="Times New Roman,serif" font-size="14.00">f</text>
</g>
<!-- 8&#45;&gt;9 -->
<g id="edge8" class="edge">
<title>8&#45;&gt;9</title>
<path fill="none" stroke="black" d="M137.5,-796.16C123.11,-785.67 102.53,-770.66 86.07,-758.66"/>
<polygon fill="black" stroke="black" points="88.29,-755.95 78.15,-752.89 84.17,-761.61 88.29,-755.95"/>
</g>
<!-- 12 -->
<g id="node11" class="node">
<title>12</title>
<ellipse fill="none" stroke="black" cx="167.11" cy="-738" rx="34.6" ry="18"/>
<text text-anchor="middle" x="167.11" y="-732.58" font-family="Times New Roman,serif" font-size="14.00">tPrime</text>
</g>
<!-- 8&#45;&gt;12 -->
<g id="edge10" class="edge">
<title>8&#45;&gt;12</title>
<path fill="none" stroke="black" d="M158.07,-791.7C159.34,-784.32 160.84,-775.52 162.26,-767.25"/>
<polygon fill="black" stroke="black" points="165.68,-768.04 163.92,-757.6 158.78,-766.86 165.68,-768.04"/>
</g>
<!-- 10 -->
<g id="node10" class="node">
<title>10</title>
<ellipse fill="none" stroke="black" cx="30.11" cy="-666" rx="30.11" ry="18"/>
<text text-anchor="middle" x="30.11" y="-660.58" font-family="Times New Roman,serif" font-size="14.00">VAR</text>
</g>
<!-- 9&#45;&gt;10 -->
<g id="edge9" class="edge">
<title>9&#45;&gt;10</title>
<path fill="none" stroke="black" d="M52.23,-720.41C49.03,-712.68 45.13,-703.27 41.51,-694.52"/>
<polygon fill="black" stroke="black" points="44.77,-693.25 37.71,-685.35 38.3,-695.93 44.77,-693.25"/>
</g>
<!-- 13 -->
<g id="node12" class="node">
<title>13</title>
<ellipse fill="none" stroke="black" cx="108.11" cy="-666" rx="30.11" ry="18"/>
<text text-anchor="middle" x="108.11" y="-660.58" font-family="Times New Roman,serif" font-size="14.00">AND</text>
</g>
<!-- 12&#45;&gt;13 -->
<g id="edge11" class="edge">
<title>12&#45;&gt;13</title>
<path fill="none" stroke="black" d="M153.72,-721.12C146.22,-712.22 136.72,-700.95 128.34,-691"/>
<polygon fill="black" stroke="black" points="131.13,-688.89 122.01,-683.5 125.78,-693.4 131.13,-688.89"/>
</g>
<!-- 15 -->
<g id="node13" class="node">
<title>15</title>
<ellipse fill="none" stroke="black" cx="183.11" cy="-666" rx="27" ry="18"/>
<text text-anchor="middle" x="183.11" y="-660.58" font-family="Times New Roman,serif" font-size="14.00">f</text>
</g>
<!-- 12&#45;&gt;15 -->
<g id="edge12" class="edge">
<title>12&#45;&gt;15</title>
<path fill="none" stroke="black" d="M171.06,-719.7C172.75,-712.32 174.76,-703.52 176.65,-695.25"/>
<polygon fill="black" stroke="black" points="180.04,-696.11 178.86,-685.58 173.22,-694.55 180.04,-696.11"/>
</g>
<!-- 18 -->
<g id="node15" class="node">
<title>18</title>
<ellipse fill="none" stroke="black" cx="263.11" cy="-666" rx="34.6" ry="18"/>
<text text-anchor="middle" x="263.11" y="-660.58" font-family="Times New Roman,serif" font-size="14.00">tPrime</text>
</g>
<!-- 12&#45;&gt;18 -->
<g id="edge14" class="edge">
<title>12&#45;&gt;18</title>
<path fill="none" stroke="black" d="M186.53,-722.83C200.33,-712.78 219.07,-699.11 234.56,-687.82"/>
<polygon fill="black" stroke="black" points="236.47,-690.76 242.48,-682.04 232.34,-685.1 236.47,-690.76"/>
</g>
<!-- 16 -->
<g id="node14" class="node">
<title>16</title>
<ellipse fill="none" stroke="black" cx="183.11" cy="-594" rx="30.11" ry="18"/>
<text text-anchor="middle" x="183.11" y="-588.58" font-family="Times New Roman,serif" font-size="14.00">VAR</text>
</g>
<!-- 15&#45;&gt;16 -->
<g id="edge13" class="edge">
<title>15&#45;&gt;16</title>
<path fill="none" stroke="black" d="M183.11,-647.7C183.11,-640.41 183.11,-631.73 183.11,-623.54"/>
<polygon fill="black" stroke="black" points="186.61,-623.62 183.11,-613.62 179.61,-623.62 186.61,-623.62"/>
</g>
<!-- 29 -->
<g id="node21" class="node">
<title>29</title>
<ellipse fill="none" stroke="black" cx="376.11" cy="-1026" rx="27" ry="18"/>
<text text-anchor="middle" x="376.11" y="-1020.58" font-family="Times New Roman,serif" font-size="14.00">OR</text>
</g>
<!-- 28&#45;&gt;29 -->
<g id="edge20" class="edge">
<title>28&#45;&gt;29</title>
<path fill="none" stroke="black" d="M403.39,-1080.05C399.26,-1072.03 394.24,-1062.26 389.63,-1053.3"/>
<polygon fill="black" stroke="black" points="392.87,-1051.95 385.18,-1044.65 386.65,-1055.15 392.87,-1051.95"/>
</g>
<!-- 31 -->
<g id="node22" class="node">
<title>31</title>
<ellipse fill="none" stroke="black" cx="448.11" cy="-1026" rx="27" ry="18"/>
<text text-anchor="middle" x="448.11" y="-1020.58" font-family="Times New Roman,serif" font-size="14.00">t</text>
</g>
<!-- 28&#45;&gt;31 -->
<g id="edge21" class="edge">
<title>28&#45;&gt;31</title>
<path fill="none" stroke="black" d="M420.82,-1080.05C424.95,-1072.03 429.97,-1062.26 434.58,-1053.3"/>
<polygon fill="black" stroke="black" points="437.57,-1055.15 439.03,-1044.65 431.34,-1051.95 437.57,-1055.15"/>
</g>
<!-- 92 -->
<g id="node62" class="node">
<title>92</title>
<ellipse fill="none" stroke="black" cx="529.11" cy="-1026" rx="36.09" ry="18"/>
<text text-anchor="middle" x="529.11" y="-1020.58" font-family="Times New Roman,serif" font-size="14.00">sPrime</text>
</g>
<!-- 28&#45;&gt;92 -->
<g id="edge61" class="edge">
<title>28&#45;&gt;92</title>
<path fill="none" stroke="black" d="M434.66,-1083.5C452.31,-1072.95 477.07,-1058.13 496.81,-1046.32"/>
<polygon fill="black" stroke="black" points="498.53,-1049.37 505.32,-1041.23 494.94,-1043.36 498.53,-1049.37"/>
</g>
<!-- 32 -->
<g id="node23" class="node">
<title>32</title>
<ellipse fill="none" stroke="black" cx="425.11" cy="-954" rx="27" ry="18"/>
<text text-anchor="middle" x="425.11" y="-948.58" font-family="Times New Roman,serif" font-size="14.00">f</text>
</g>
<!-- 31&#45;&gt;32 -->
<g id="edge22" class="edge">
<title>31&#45;&gt;32</title>
<path fill="none" stroke="black" d="M442.54,-1008.05C440.02,-1000.4 436.99,-991.16 434.16,-982.56"/>
<polygon fill="black" stroke="black" points="437.54,-981.63 431.09,-973.23 430.89,-983.82 437.54,-981.63"/>
</g>
<!-- 90 -->
<g id="node61" class="node">
<title>90</title>
<ellipse fill="none" stroke="black" cx="505.11" cy="-954" rx="34.6" ry="18"/>
<text text-anchor="middle" x="505.11" y="-948.58" font-family="Times New Roman,serif" font-size="14.00">tPrime</text>
</g>
<!-- 31&#45;&gt;90 -->
<g id="edge60" class="edge">
<title>31&#45;&gt;90</title>
<path fill="none" stroke="black" d="M460.47,-1009.81C467.59,-1001.07 476.72,-989.87 484.86,-979.87"/>
<polygon fill="black" stroke="black" points="487.41,-982.27 491.01,-972.31 481.98,-977.85 487.41,-982.27"/>
</g>
<!-- 33 -->
<g id="node24" class="node">
<title>33</title>
<ellipse fill="none" stroke="black" cx="386.11" cy="-882" rx="30.11" ry="18"/>
<text text-anchor="middle" x="386.11" y="-876.58" font-family="Times New Roman,serif" font-size="14.00">NOT</text>
</g>
<!-- 32&#45;&gt;33 -->
<g id="edge23" class="edge">
<title>32&#45;&gt;33</title>
<path fill="none" stroke="black" d="M416.06,-936.76C411.48,-928.55 405.81,-918.37 400.64,-909.09"/>
<polygon fill="black" stroke="black" points="403.76,-907.5 395.84,-900.47 397.65,-910.91 403.76,-907.5"/>
</g>
<!-- 35 -->
<g id="node25" class="node">
<title>35</title>
<ellipse fill="none" stroke="black" cx="461.11" cy="-882" rx="27" ry="18"/>
<text text-anchor="middle" x="461.11" y="-876.58" font-family="Times New Roman,serif" font-size="14.00">f</text>
</g>
<!-- 32&#45;&gt;35 -->
<g id="edge24" class="edge">
<title>32&#45;&gt;35</title>
<path fill="none" stroke="black" d="M433.46,-936.76C437.68,-928.55 442.91,-918.37 447.69,-909.09"/>
<polygon fill="black" stroke="black" points="450.65,-910.99 452.11,-900.49 444.42,-907.79 450.65,-910.99"/>
</g>
<!-- 36 -->
<g id="node26" class="node">
<title>36</title>
<ellipse fill="none" stroke="black" cx="369.11" cy="-810" rx="46.57" ry="18"/>
<text text-anchor="middle" x="369.11" y="-804.58" font-family="Times New Roman,serif" font-size="14.00">LPAREN</text>
</g>
<!-- 35&#45;&gt;36 -->
<g id="edge25" class="edge">
<title>35&#45;&gt;36</title>
<path fill="none" stroke="black" d="M443.8,-867.83C431.04,-858.13 413.38,-844.69 398.43,-833.31"/>
<polygon fill="black" stroke="black" points="400.83,-830.74 390.75,-827.47 396.59,-836.31 400.83,-830.74"/>
</g>
<!-- 38 -->
<g id="node27" class="node">
<title>38</title>
<ellipse fill="none" stroke="black" cx="461.11" cy="-810" rx="27" ry="18"/>
<text text-anchor="middle" x="461.11" y="-804.58" font-family="Times New Roman,serif" font-size="14.00">e</text>
</g>
<!-- 35&#45;&gt;38 -->
<g id="edge26" class="edge">
<title>35&#45;&gt;38</title>
<path fill="none" stroke="black" d="M461.11,-863.7C461.11,-856.41 461.11,-847.73 461.11,-839.54"/>
<polygon fill="black" stroke="black" points="464.61,-839.62 461.11,-829.62 457.61,-839.62 464.61,-839.62"/>
</g>
<!-- 88 -->
<g id="node60" class="node">
<title>88</title>
<ellipse fill="none" stroke="black" cx="554.11" cy="-810" rx="47.57" ry="18"/>
<text text-anchor="middle" x="554.11" y="-804.58" font-family="Times New Roman,serif" font-size="14.00">RPAREN</text>
</g>
<!-- 35&#45;&gt;88 -->
<g id="edge59" class="edge">
<title>35&#45;&gt;88</title>
<path fill="none" stroke="black" d="M478.6,-867.83C491.5,-858.13 509.35,-844.69 524.46,-833.31"/>
<polygon fill="black" stroke="black" points="526.35,-836.27 532.24,-827.46 522.14,-830.68 526.35,-836.27"/>
</g>
<!-- 39 -->
<g id="node28" class="node">
<title>39</title>
<ellipse fill="none" stroke="black" cx="448.11" cy="-738" rx="27" ry="18"/>
<text text-anchor="middle" x="448.11" y="-732.58" font-family="Times New Roman,serif" font-size="14.00">s</text>
</g>
<!-- 38&#45;&gt;39 -->
<g id="edge27" class="edge">
<title>38&#45;&gt;39</title>
<path fill="none" stroke="black" d="M457.89,-791.7C456.52,-784.32 454.89,-775.52 453.35,-767.25"/>
<polygon fill="black" stroke="black" points="456.83,-766.79 451.56,-757.59 449.94,-768.06 456.83,-766.79"/>
</g>
<!-- 48 -->
<g id="node34" class="node">
<title>48</title>
<ellipse fill="none" stroke="black" cx="571.11" cy="-738" rx="36.09" ry="18"/>
<text text-anchor="middle" x="571.11" y="-732.58" font-family="Times New Roman,serif" font-size="14.00">ePrime</text>
</g>
<!-- 38&#45;&gt;48 -->
<g id="edge33" class="edge">
<title>38&#45;&gt;48</title>
<path fill="none" stroke="black" d="M480.27,-796.81C496.73,-786.33 520.77,-771.03 539.99,-758.8"/>
<polygon fill="black" stroke="black" points="541.69,-761.86 548.25,-753.54 537.94,-755.96 541.69,-761.86"/>
</g>
<!-- 40 -->
<g id="node29" class="node">
<title>40</title>
<ellipse fill="none" stroke="black" cx="367.11" cy="-666" rx="27" ry="18"/>
<text text-anchor="middle" x="367.11" y="-660.58" font-family="Times New Roman,serif" font-size="14.00">t</text>
</g>
<!-- 39&#45;&gt;40 -->
<g id="edge28" class="edge">
<title>39&#45;&gt;40</title>
<path fill="none" stroke="black" d="M432.1,-723.17C420.57,-713.2 404.78,-699.56 391.65,-688.21"/>
<polygon fill="black" stroke="black" points="394.08,-685.68 384.22,-681.79 389.5,-690.98 394.08,-685.68"/>
</g>
<!-- 46 -->
<g id="node33" class="node">
<title>46</title>
<ellipse fill="none" stroke="black" cx="448.11" cy="-666" rx="36.09" ry="18"/>
<text text-anchor="middle" x="448.11" y="-660.58" font-family="Times New Roman,serif" font-size="14.00">sPrime</text>
</g>
<!-- 39&#45;&gt;46 -->
<g id="edge32" class="edge">
<title>39&#45;&gt;46</title>
<path fill="none" stroke="black" d="M448.11,-719.7C448.11,-712.41 448.11,-703.73 448.11,-695.54"/>
<polygon fill="black" stroke="black" points="451.61,-695.62 448.11,-685.62 444.61,-695.62 451.61,-695.62"/>
</g>
<!-- 41 -->
<g id="node30" class="node">
<title>41</title>
<ellipse fill="none" stroke="black" cx="327.11" cy="-594" rx="27" ry="18"/>
<text text-anchor="middle" x="327.11" y="-588.58" font-family="Times New Roman,serif" font-size="14.00">f</text>
</g>
<!-- 40&#45;&gt;41 -->
<g id="edge29" class="edge">
<title>40&#45;&gt;41</title>
<path fill="none" stroke="black" d="M357.83,-648.76C353.13,-640.55 347.32,-630.37 342.02,-621.09"/>
<polygon fill="black" stroke="black" points="345.08,-619.41 337.08,-612.46 339.01,-622.88 345.08,-619.41"/>
</g>
<!-- 44 -->
<g id="node32" class="node">
<title>44</title>
<ellipse fill="none" stroke="black" cx="407.11" cy="-594" rx="34.6" ry="18"/>
<text text-anchor="middle" x="407.11" y="-588.58" font-family="Times New Roman,serif" font-size="14.00">tPrime</text>
</g>
<!-- 40&#45;&gt;44 -->
<g id="edge31" class="edge">
<title>40&#45;&gt;44</title>
<path fill="none" stroke="black" d="M376.38,-648.76C381.01,-640.67 386.73,-630.66 391.97,-621.49"/>
<polygon fill="black" stroke="black" points="394.93,-623.37 396.85,-612.95 388.85,-619.89 394.93,-623.37"/>
</g>
<!-- 42 -->
<g id="node31" class="node">
<title>42</title>
<ellipse fill="none" stroke="black" cx="327.11" cy="-522" rx="30.11" ry="18"/>
<text text-anchor="middle" x="327.11" y="-516.58" font-family="Times New Roman,serif" font-size="14.00">VAR</text>
</g>
<!-- 41&#45;&gt;42 -->
<g id="edge30" class="edge">
<title>41&#45;&gt;42</title>
<path fill="none" stroke="black" d="M327.11,-575.7C327.11,-568.41 327.11,-559.73 327.11,-551.54"/>
<polygon fill="black" stroke="black" points="330.61,-551.62 327.11,-541.62 323.61,-551.62 330.61,-551.62"/>
</g>
<!-- 49 -->
<g id="node35" class="node">
<title>49</title>
<ellipse fill="none" stroke="black" cx="533.11" cy="-666" rx="30.61" ry="18"/>
<text text-anchor="middle" x="533.11" y="-660.58" font-family="Times New Roman,serif" font-size="14.00">XOR</text>
</g>
<!-- 48&#45;&gt;49 -->
<g id="edge34" class="edge">
<title>48&#45;&gt;49</title>
<path fill="none" stroke="black" d="M562.1,-720.41C557.75,-712.39 552.41,-702.57 547.51,-693.54"/>
<polygon fill="black" stroke="black" points="550.62,-691.92 542.77,-684.8 544.46,-695.26 550.62,-691.92"/>
</g>
<!-- 51 -->
<g id="node36" class="node">
<title>51</title>
<ellipse fill="none" stroke="black" cx="609.11" cy="-666" rx="27" ry="18"/>
<text text-anchor="middle" x="609.11" y="-660.58" font-family="Times New Roman,serif" font-size="14.00">s</text>
</g>
<!-- 48&#45;&gt;51 -->
<g id="edge35" class="edge">
<title>48&#45;&gt;51</title>
<path fill="none" stroke="black" d="M580.11,-720.41C584.47,-712.39 589.8,-702.57 594.7,-693.54"/>
<polygon fill="black" stroke="black" points="597.75,-695.26 599.44,-684.8 591.6,-691.92 597.75,-695.26"/>
</g>
<!-- 86 -->
<g id="node59" class="node">
<title>86</title>
<ellipse fill="none" stroke="black" cx="690.11" cy="-666" rx="36.09" ry="18"/>
<text text-anchor="middle" x="690.11" y="-660.58" font-family="Times New Roman,serif" font-size="14.00">ePrime</text>
</g>
<!-- 48&#45;&gt;86 -->
<g id="edge58" class="edge">
<title>48&#45;&gt;86</title>
<path fill="none" stroke="black" d="M593.77,-723.67C611.88,-713.01 637.51,-697.94 657.78,-686.02"/>
<polygon fill="black" stroke="black" points="659.38,-689.14 666.22,-681.05 655.83,-683.1 659.38,-689.14"/>
</g>
<!-- 52 -->
<g id="node37" class="node">
<title>52</title>
<ellipse fill="none" stroke="black" cx="568.11" cy="-594" rx="27" ry="18"/>
<text text-anchor="middle" x="568.11" y="-588.58" font-family="Times New Roman,serif" font-size="14.00">t</text>
</g>
<!-- 51&#45;&gt;52 -->
<g id="edge36" class="edge">
<title>51&#45;&gt;52</title>
<path fill="none" stroke="black" d="M599.6,-648.76C594.73,-640.46 588.7,-630.15 583.21,-620.79"/>
<polygon fill="black" stroke="black" points="586.4,-619.31 578.33,-612.45 580.36,-622.85 586.4,-619.31"/>
</g>
<!-- 84 -->
<g id="node58" class="node">
<title>84</title>
<ellipse fill="none" stroke="black" cx="649.11" cy="-594" rx="36.09" ry="18"/>
<text text-anchor="middle" x="649.11" y="-588.58" font-family="Times New Roman,serif" font-size="14.00">sPrime</text>
</g>
<!-- 51&#45;&gt;84 -->
<g id="edge57" class="edge">
<title>51&#45;&gt;84</title>
<path fill="none" stroke="black" d="M618.38,-648.76C623.01,-640.67 628.73,-630.66 633.97,-621.49"/>
<polygon fill="black" stroke="black" points="636.93,-623.37 638.85,-612.95 630.85,-619.89 636.93,-623.37"/>
</g>
<!-- 53 -->
<g id="node38" class="node">
<title>53</title>
<ellipse fill="none" stroke="black" cx="528.11" cy="-522" rx="27" ry="18"/>
<text text-anchor="middle" x="528.11" y="-516.58" font-family="Times New Roman,serif" font-size="14.00">f</text>
</g>
<!-- 52&#45;&gt;53 -->
<g id="edge37" class="edge">
<title>52&#45;&gt;53</title>
<path fill="none" stroke="black" d="M558.83,-576.76C554.13,-568.55 548.32,-558.37 543.02,-549.09"/>
<polygon fill="black" stroke="black" points="546.08,-547.41 538.08,-540.46 540.01,-550.88 546.08,-547.41"/>
</g>
<!-- 82 -->
<g id="node57" class="node">
<title>82</title>
<ellipse fill="none" stroke="black" cx="608.11" cy="-522" rx="34.6" ry="18"/>
<text text-anchor="middle" x="608.11" y="-516.58" font-family="Times New Roman,serif" font-size="14.00">tPrime</text>
</g>
<!-- 52&#45;&gt;82 -->
<g id="edge56" class="edge">
<title>52&#45;&gt;82</title>
<path fill="none" stroke="black" d="M577.38,-576.76C582.01,-568.67 587.73,-558.66 592.97,-549.49"/>
<polygon fill="black" stroke="black" points="595.93,-551.37 597.85,-540.95 589.85,-547.89 595.93,-551.37"/>
</g>
<!-- 54 -->
<g id="node39" class="node">
<title>54</title>
<ellipse fill="none" stroke="black" cx="436.11" cy="-450" rx="46.57" ry="18"/>
<text text-anchor="middle" x="436.11" y="-444.57" font-family="Times New Roman,serif" font-size="14.00">LPAREN</text>
</g>
<!-- 53&#45;&gt;54 -->
<g id="edge38" class="edge">
<title>53&#45;&gt;54</title>
<path fill="none" stroke="black" d="M510.8,-507.83C498.04,-498.13 480.38,-484.69 465.43,-473.31"/>
<polygon fill="black" stroke="black" points="467.83,-470.74 457.75,-467.47 463.59,-476.31 467.83,-470.74"/>
</g>
<!-- 56 -->
<g id="node40" class="node">
<title>56</title>
<ellipse fill="none" stroke="black" cx="528.11" cy="-450" rx="27" ry="18"/>
<text text-anchor="middle" x="528.11" y="-444.57" font-family="Times New Roman,serif" font-size="14.00">e</text>
</g>
<!-- 53&#45;&gt;56 -->
<g id="edge39" class="edge">
<title>53&#45;&gt;56</title>
<path fill="none" stroke="black" d="M528.11,-503.7C528.11,-496.41 528.11,-487.73 528.11,-479.54"/>
<polygon fill="black" stroke="black" points="531.61,-479.62 528.11,-469.62 524.61,-479.62 531.61,-479.62"/>
</g>
<!-- 80 -->
<g id="node56" class="node">
<title>80</title>
<ellipse fill="none" stroke="black" cx="621.11" cy="-450" rx="47.57" ry="18"/>
<text text-anchor="middle" x="621.11" y="-444.57" font-family="Times New Roman,serif" font-size="14.00">RPAREN</text>
</g>
<!-- 53&#45;&gt;80 -->
<g id="edge55" class="edge">
<title>53&#45;&gt;80</title>
<path fill="none" stroke="black" d="M545.6,-507.83C558.5,-498.13 576.35,-484.69 591.46,-473.31"/>
<polygon fill="black" stroke="black" points="593.35,-476.27 599.24,-467.46 589.14,-470.68 593.35,-476.27"/>
</g>
<!-- 57 -->
<g id="node41" class="node">
<title>57</title>
<ellipse fill="none" stroke="black" cx="488.11" cy="-378" rx="27" ry="18"/>
<text text-anchor="middle" x="488.11" y="-372.57" font-family="Times New Roman,serif" font-size="14.00">s</text>
</g>
<!-- 56&#45;&gt;57 -->
<g id="edge40" class="edge">
<title>56&#45;&gt;57</title>
<path fill="none" stroke="black" d="M518.83,-432.76C514.13,-424.55 508.32,-414.37 503.02,-405.09"/>
<polygon fill="black" stroke="black" points="506.08,-403.41 498.08,-396.46 500.01,-406.88 506.08,-403.41"/>
</g>
<!-- 78 -->
<g id="node55" class="node">
<title>78</title>
<ellipse fill="none" stroke="black" cx="569.11" cy="-378" rx="36.09" ry="18"/>
<text text-anchor="middle" x="569.11" y="-372.57" font-family="Times New Roman,serif" font-size="14.00">ePrime</text>
</g>
<!-- 56&#45;&gt;78 -->
<g id="edge54" class="edge">
<title>56&#45;&gt;78</title>
<path fill="none" stroke="black" d="M537.62,-432.76C542.36,-424.67 548.22,-414.66 553.59,-405.49"/>
<polygon fill="black" stroke="black" points="556.56,-407.34 558.6,-396.94 550.52,-403.8 556.56,-407.34"/>
</g>
<!-- 58 -->
<g id="node42" class="node">
<title>58</title>
<ellipse fill="none" stroke="black" cx="448.11" cy="-306" rx="27" ry="18"/>
<text text-anchor="middle" x="448.11" y="-300.57" font-family="Times New Roman,serif" font-size="14.00">t</text>
</g>
<!-- 57&#45;&gt;58 -->
<g id="edge41" class="edge">
<title>57&#45;&gt;58</title>
<path fill="none" stroke="black" d="M478.83,-360.76C474.13,-352.55 468.32,-342.37 463.02,-333.09"/>
<polygon fill="black" stroke="black" points="466.08,-331.41 458.08,-324.46 460.01,-334.88 466.08,-331.41"/>
</g>
<!-- 64 -->
<g id="node46" class="node">
<title>64</title>
<ellipse fill="none" stroke="black" cx="564.11" cy="-306" rx="36.09" ry="18"/>
<text text-anchor="middle" x="564.11" y="-300.57" font-family="Times New Roman,serif" font-size="14.00">sPrime</text>
</g>
<!-- 57&#45;&gt;64 -->
<g id="edge45" class="edge">
<title>57&#45;&gt;64</title>
<path fill="none" stroke="black" d="M503.49,-362.83C513.75,-353.38 527.47,-340.75 539.26,-329.88"/>
<polygon fill="black" stroke="black" points="541.33,-332.73 546.32,-323.38 536.59,-327.58 541.33,-332.73"/>
</g>
<!-- 59 -->
<g id="node43" class="node">
<title>59</title>
<ellipse fill="none" stroke="black" cx="368.11" cy="-234" rx="27" ry="18"/>
<text text-anchor="middle" x="368.11" y="-228.57" font-family="Times New Roman,serif" font-size="14.00">f</text>
</g>
<!-- 58&#45;&gt;59 -->
<g id="edge42" class="edge">
<title>58&#45;&gt;59</title>
<path fill="none" stroke="black" d="M432.3,-291.17C420.91,-281.2 405.31,-267.56 392.35,-256.21"/>
<polygon fill="black" stroke="black" points="394.85,-253.75 385.02,-249.8 390.24,-259.02 394.85,-253.75"/>
</g>
<!-- 62 -->
<g id="node45" class="node">
<title>62</title>
<ellipse fill="none" stroke="black" cx="448.11" cy="-234" rx="34.6" ry="18"/>
<text text-anchor="middle" x="448.11" y="-228.57" font-family="Times New Roman,serif" font-size="14.00">tPrime</text>
</g>
<!-- 58&#45;&gt;62 -->
<g id="edge44" class="edge">
<title>58&#45;&gt;62</title>
<path fill="none" stroke="black" d="M448.11,-287.7C448.11,-280.41 448.11,-271.73 448.11,-263.54"/>
<polygon fill="black" stroke="black" points="451.61,-263.62 448.11,-253.62 444.61,-263.62 451.61,-263.62"/>
</g>
<!-- 60 -->
<g id="node44" class="node">
<title>60</title>
<ellipse fill="none" stroke="black" cx="368.11" cy="-162" rx="30.11" ry="18"/>
<text text-anchor="middle" x="368.11" y="-156.57" font-family="Times New Roman,serif" font-size="14.00">VAR</text>
</g>
<!-- 59&#45;&gt;60 -->
<g id="edge43" class="edge">
<title>59&#45;&gt;60</title>
<path fill="none" stroke="black" d="M368.11,-215.7C368.11,-208.41 368.11,-199.73 368.11,-191.54"/>
<polygon fill="black" stroke="black" points="371.61,-191.62 368.11,-181.62 364.61,-191.62 371.61,-191.62"/>
</g>
<!-- 65 -->
<g id="node47" class="node">
<title>65</title>
<ellipse fill="none" stroke="black" cx="528.11" cy="-234" rx="27" ry="18"/>
<text text-anchor="middle" x="528.11" y="-228.57" font-family="Times New Roman,serif" font-size="14.00">OR</text>
</g>
<!-- 64&#45;&gt;65 -->
<g id="edge46" class="edge">
<title>64&#45;&gt;65</title>
<path fill="none" stroke="black" d="M555.39,-288.05C551.26,-280.03 546.24,-270.26 541.63,-261.3"/>
<polygon fill="black" stroke="black" points="544.87,-259.95 537.18,-252.65 538.65,-263.15 544.87,-259.95"/>
</g>
<!-- 67 -->
<g id="node48" class="node">
<title>67</title>
<ellipse fill="none" stroke="black" cx="600.11" cy="-234" rx="27" ry="18"/>
<text text-anchor="middle" x="600.11" y="-228.57" font-family="Times New Roman,serif" font-size="14.00">t</text>
</g>
<!-- 64&#45;&gt;67 -->
<g id="edge47" class="edge">
<title>64&#45;&gt;67</title>
<path fill="none" stroke="black" d="M572.82,-288.05C576.95,-280.03 581.97,-270.26 586.58,-261.3"/>
<polygon fill="black" stroke="black" points="589.57,-263.15 591.03,-252.65 583.34,-259.95 589.57,-263.15"/>
</g>
<!-- 76 -->
<g id="node54" class="node">
<title>76</title>
<ellipse fill="none" stroke="black" cx="681.11" cy="-234" rx="36.09" ry="18"/>
<text text-anchor="middle" x="681.11" y="-228.57" font-family="Times New Roman,serif" font-size="14.00">sPrime</text>
</g>
<!-- 64&#45;&gt;76 -->
<g id="edge53" class="edge">
<title>64&#45;&gt;76</title>
<path fill="none" stroke="black" d="M586.66,-291.5C604.31,-280.95 629.07,-266.13 648.81,-254.32"/>
<polygon fill="black" stroke="black" points="650.53,-257.37 657.32,-249.23 646.94,-251.36 650.53,-257.37"/>
</g>
<!-- 68 -->
<g id="node49" class="node">
<title>68</title>
<ellipse fill="none" stroke="black" cx="560.11" cy="-162" rx="27" ry="18"/>
<text text-anchor="middle" x="560.11" y="-156.57" font-family="Times New Roman,serif" font-size="14.00">f</text>
</g>
<!-- 67&#45;&gt;68 -->
<g id="edge48" class="edge">
<title>67&#45;&gt;68</title>
<path fill="none" stroke="black" d="M590.83,-216.76C586.13,-208.55 580.32,-198.37 575.02,-189.09"/>
<polygon fill="black" stroke="black" points="578.08,-187.41 570.08,-180.46 572.01,-190.88 578.08,-187.41"/>
</g>
<!-- 74 -->
<g id="node53" class="node">
<title>74</title>
<ellipse fill="none" stroke="black" cx="640.11" cy="-162" rx="34.6" ry="18"/>
<text text-anchor="middle" x="640.11" y="-156.57" font-family="Times New Roman,serif" font-size="14.00">tPrime</text>
</g>
<!-- 67&#45;&gt;74 -->
<g id="edge52" class="edge">
<title>67&#45;&gt;74</title>
<path fill="none" stroke="black" d="M609.38,-216.76C614.01,-208.67 619.73,-198.66 624.97,-189.49"/>
<polygon fill="black" stroke="black" points="627.93,-191.37 629.85,-180.95 621.85,-187.89 627.93,-191.37"/>
</g>
<!-- 69 -->
<g id="node50" class="node">
<title>69</title>
<ellipse fill="none" stroke="black" cx="523.11" cy="-90" rx="30.11" ry="18"/>
<text text-anchor="middle" x="523.11" y="-84.58" font-family="Times New Roman,serif" font-size="14.00">NOT</text>
</g>
<!-- 68&#45;&gt;69 -->
<g id="edge49" class="edge">
<title>68&#45;&gt;69</title>
<path fill="none" stroke="black" d="M551.52,-144.76C547.29,-136.75 542.07,-126.88 537.26,-117.79"/>
<polygon fill="black" stroke="black" points="540.37,-116.18 532.61,-108.97 534.18,-119.45 540.37,-116.18"/>
</g>
<!-- 71 -->
<g id="node51" class="node">
<title>71</title>
<ellipse fill="none" stroke="black" cx="598.11" cy="-90" rx="27" ry="18"/>
<text text-anchor="middle" x="598.11" y="-84.58" font-family="Times New Roman,serif" font-size="14.00">f</text>
</g>
<!-- 68&#45;&gt;71 -->
<g id="edge50" class="edge">
<title>68&#45;&gt;71</title>
<path fill="none" stroke="black" d="M568.92,-144.76C573.38,-136.55 578.9,-126.37 583.94,-117.09"/>
<polygon fill="black" stroke="black" points="586.92,-118.94 588.62,-108.48 580.77,-115.6 586.92,-118.94"/>
</g>
<!-- 72 -->
<g id="node52" class="node">
<title>72</title>
<ellipse fill="none" stroke="black" cx="598.11" cy="-18" rx="30.11" ry="18"/>
<text text-anchor="middle" x="598.11" y="-12.57" font-family="Times New Roman,serif" font-size="14.00">VAR</text>
</g>
<!-- 71&#45;&gt;72 -->
<g id="edge51" class="edge">
<title>71&#45;&gt;72</title>
<path fill="none" stroke="black" d="M598.11,-71.7C598.11,-64.41 598.11,-55.73 598.11,-47.54"/>
<polygon fill="black" stroke="black" points="601.61,-47.62 598.11,-37.62 594.61,-47.62 601.61,-47.62"/>
</g>
</g>
</svg>
