<?xml version="1.0" encoding="UTF-8" standalone="no"?>
<!DOCTYPE svg PUBLIC "-//W3C//DTD SVG 1.1//EN"
 "http://www.w3.org/Graphics/SVG/1.1/DTD/svg11.dtd">
<!-- Generated by graphviz version 9.0.0 (20230911.1827)
 -->
<!-- Pages: 1 -->
<svg width="443pt" height="404pt"
 viewBox="0.00 0.00 442.70 404.00" xmlns="http://www.w3.org/2000/svg" xmlns:xlink="http://www.w3.org/1999/xlink">
<g id="graph0" class="graph" transform="scale(1 1) rotate(0) translate(4 400)">
<polygon fill="white" stroke="none" points="-4,4 -4,-400 438.7,-400 438.7,4 -4,4"/>
<!-- 0 -->
<g id="node1" class="node">
<title>0</title>
<ellipse fill="none" stroke="black" cx="195.6" cy="-378" rx="27" ry="18"/>
<text text-anchor="middle" x="195.6" y="-372.57" font-family="Times New Roman,serif" font-size="14.00">e</text>
</g>
<!-- 1 -->
<g id="node2" class="node">
<title>1</title>
<ellipse fill="none" stroke="black" cx="152.6" cy="-306" rx="27" ry="18"/>
<text text-anchor="middle" x="152.6" y="-300.57" font-family="Times New Roman,serif" font-size="14.00">t</text>
</g>
<!-- 0&#45;&gt;1 -->
<g id="edge1" class="edge">
<title>0&#45;&gt;1</title>
<path fill="none" stroke="black" d="M185.63,-360.76C180.53,-352.46 174.2,-342.15 168.45,-332.79"/>
<polygon fill="black" stroke="black" points="171.53,-331.13 163.31,-324.44 165.57,-334.79 171.53,-331.13"/>
</g>
<!-- 10 -->
<g id="node8" class="node">
<title>10</title>
<ellipse fill="none" stroke="black" cx="277.6" cy="-306" rx="36.09" ry="18"/>
<text text-anchor="middle" x="277.6" y="-300.57" font-family="Times New Roman,serif" font-size="14.00">ePrime</text>
</g>
<!-- 0&#45;&gt;10 -->
<g id="edge7" class="edge">
<title>0&#45;&gt;10</title>
<path fill="none" stroke="black" d="M211.8,-363.17C223.1,-353.52 238.43,-340.44 251.45,-329.33"/>
<polygon fill="black" stroke="black" points="253.53,-332.15 258.87,-323 248.99,-326.83 253.53,-332.15"/>
</g>
<!-- 2 -->
<g id="node3" class="node">
<title>2</title>
<ellipse fill="none" stroke="black" cx="72.6" cy="-234" rx="27" ry="18"/>
<text text-anchor="middle" x="72.6" y="-228.57" font-family="Times New Roman,serif" font-size="14.00">p</text>
</g>
<!-- 1&#45;&gt;2 -->
<g id="edge2" class="edge">
<title>1&#45;&gt;2</title>
<path fill="none" stroke="black" d="M136.8,-291.17C125.4,-281.2 109.81,-267.56 96.85,-256.21"/>
<polygon fill="black" stroke="black" points="99.35,-253.75 89.51,-249.8 94.74,-259.02 99.35,-253.75"/>
</g>
<!-- 8 -->
<g id="node7" class="node">
<title>8</title>
<ellipse fill="none" stroke="black" cx="152.6" cy="-234" rx="34.6" ry="18"/>
<text text-anchor="middle" x="152.6" y="-228.57" font-family="Times New Roman,serif" font-size="14.00">tPrime</text>
</g>
<!-- 1&#45;&gt;8 -->
<g id="edge6" class="edge">
<title>1&#45;&gt;8</title>
<path fill="none" stroke="black" d="M152.6,-287.7C152.6,-280.41 152.6,-271.73 152.6,-263.54"/>
<polygon fill="black" stroke="black" points="156.1,-263.62 152.6,-253.62 149.1,-263.62 156.1,-263.62"/>
</g>
<!-- 3 -->
<g id="node4" class="node">
<title>3</title>
<ellipse fill="none" stroke="black" cx="31.6" cy="-162" rx="27" ry="18"/>
<text text-anchor="middle" x="31.6" y="-156.57" font-family="Times New Roman,serif" font-size="14.00">f</text>
</g>
<!-- 2&#45;&gt;3 -->
<g id="edge3" class="edge">
<title>2&#45;&gt;3</title>
<path fill="none" stroke="black" d="M63.09,-216.76C58.23,-208.46 52.19,-198.15 46.71,-188.79"/>
<polygon fill="black" stroke="black" points="49.9,-187.31 41.83,-180.45 43.86,-190.85 49.9,-187.31"/>
</g>
<!-- 6 -->
<g id="node6" class="node">
<title>6</title>
<ellipse fill="none" stroke="black" cx="113.6" cy="-162" rx="37.09" ry="18"/>
<text text-anchor="middle" x="113.6" y="-156.57" font-family="Times New Roman,serif" font-size="14.00">pPrime</text>
</g>
<!-- 2&#45;&gt;6 -->
<g id="edge5" class="edge">
<title>2&#45;&gt;6</title>
<path fill="none" stroke="black" d="M82.11,-216.76C86.86,-208.67 92.71,-198.66 98.09,-189.49"/>
<polygon fill="black" stroke="black" points="101.06,-191.34 103.1,-180.94 95.02,-187.8 101.06,-191.34"/>
</g>
<!-- 4 -->
<g id="node5" class="node">
<title>4</title>
<ellipse fill="none" stroke="black" cx="31.6" cy="-90" rx="31.6" ry="18"/>
<text text-anchor="middle" x="31.6" y="-84.58" font-family="Times New Roman,serif" font-size="14.00">NUM</text>
</g>
<!-- 3&#45;&gt;4 -->
<g id="edge4" class="edge">
<title>3&#45;&gt;4</title>
<path fill="none" stroke="black" d="M31.6,-143.7C31.6,-136.41 31.6,-127.73 31.6,-119.54"/>
<polygon fill="black" stroke="black" points="35.1,-119.62 31.6,-109.62 28.1,-119.62 35.1,-119.62"/>
</g>
<!-- 11 -->
<g id="node9" class="node">
<title>11</title>
<ellipse fill="none" stroke="black" cx="238.6" cy="-234" rx="33.6" ry="18"/>
<text text-anchor="middle" x="238.6" y="-228.57" font-family="Times New Roman,serif" font-size="14.00">PLUS</text>
</g>
<!-- 10&#45;&gt;11 -->
<g id="edge8" class="edge">
<title>10&#45;&gt;11</title>
<path fill="none" stroke="black" d="M268.36,-288.41C263.84,-280.3 258.3,-270.35 253.23,-261.25"/>
<polygon fill="black" stroke="black" points="256.44,-259.82 248.52,-252.79 250.33,-263.23 256.44,-259.82"/>
</g>
<!-- 13 -->
<g id="node10" class="node">
<title>13</title>
<ellipse fill="none" stroke="black" cx="317.6" cy="-234" rx="27" ry="18"/>
<text text-anchor="middle" x="317.6" y="-228.57" font-family="Times New Roman,serif" font-size="14.00">t</text>
</g>
<!-- 10&#45;&gt;13 -->
<g id="edge9" class="edge">
<title>10&#45;&gt;13</title>
<path fill="none" stroke="black" d="M287.08,-288.41C291.78,-280.19 297.57,-270.06 302.83,-260.85"/>
<polygon fill="black" stroke="black" points="305.79,-262.72 307.72,-252.3 299.72,-259.25 305.79,-262.72"/>
</g>
<!-- 22 -->
<g id="node16" class="node">
<title>22</title>
<ellipse fill="none" stroke="black" cx="398.6" cy="-234" rx="36.09" ry="18"/>
<text text-anchor="middle" x="398.6" y="-228.57" font-family="Times New Roman,serif" font-size="14.00">ePrime</text>
</g>
<!-- 10&#45;&gt;22 -->
<g id="edge15" class="edge">
<title>10&#45;&gt;22</title>
<path fill="none" stroke="black" d="M300.65,-291.67C319.07,-281.01 345.12,-265.94 365.73,-254.02"/>
<polygon fill="black" stroke="black" points="367.43,-257.08 374.33,-249.04 363.93,-251.02 367.43,-257.08"/>
</g>
<!-- 14 -->
<g id="node11" class="node">
<title>14</title>
<ellipse fill="none" stroke="black" cx="277.6" cy="-162" rx="27" ry="18"/>
<text text-anchor="middle" x="277.6" y="-156.57" font-family="Times New Roman,serif" font-size="14.00">p</text>
</g>
<!-- 13&#45;&gt;14 -->
<g id="edge10" class="edge">
<title>13&#45;&gt;14</title>
<path fill="none" stroke="black" d="M308.33,-216.76C303.63,-208.55 297.82,-198.37 292.51,-189.09"/>
<polygon fill="black" stroke="black" points="295.58,-187.41 287.58,-180.46 289.5,-190.88 295.58,-187.41"/>
</g>
<!-- 20 -->
<g id="node15" class="node">
<title>20</title>
<ellipse fill="none" stroke="black" cx="357.6" cy="-162" rx="34.6" ry="18"/>
<text text-anchor="middle" x="357.6" y="-156.57" font-family="Times New Roman,serif" font-size="14.00">tPrime</text>
</g>
<!-- 13&#45;&gt;20 -->
<g id="edge14" class="edge">
<title>13&#45;&gt;20</title>
<path fill="none" stroke="black" d="M326.88,-216.76C331.51,-208.67 337.22,-198.66 342.47,-189.49"/>
<polygon fill="black" stroke="black" points="345.42,-191.37 347.35,-180.95 339.35,-187.89 345.42,-191.37"/>
</g>
<!-- 15 -->
<g id="node12" class="node">
<title>15</title>
<ellipse fill="none" stroke="black" cx="236.6" cy="-90" rx="27" ry="18"/>
<text text-anchor="middle" x="236.6" y="-84.58" font-family="Times New Roman,serif" font-size="14.00">f</text>
</g>
<!-- 14&#45;&gt;15 -->
<g id="edge11" class="edge">
<title>14&#45;&gt;15</title>
<path fill="none" stroke="black" d="M268.09,-144.76C263.23,-136.46 257.19,-126.15 251.71,-116.79"/>
<polygon fill="black" stroke="black" points="254.9,-115.31 246.83,-108.45 248.86,-118.85 254.9,-115.31"/>
</g>
<!-- 18 -->
<g id="node14" class="node">
<title>18</title>
<ellipse fill="none" stroke="black" cx="318.6" cy="-90" rx="37.09" ry="18"/>
<text text-anchor="middle" x="318.6" y="-84.58" font-family="Times New Roman,serif" font-size="14.00">pPrime</text>
</g>
<!-- 14&#45;&gt;18 -->
<g id="edge13" class="edge">
<title>14&#45;&gt;18</title>
<path fill="none" stroke="black" d="M287.11,-144.76C291.86,-136.67 297.71,-126.66 303.09,-117.49"/>
<polygon fill="black" stroke="black" points="306.06,-119.34 308.1,-108.94 300.02,-115.8 306.06,-119.34"/>
</g>
<!-- 16 -->
<g id="node13" class="node">
<title>16</title>
<ellipse fill="none" stroke="black" cx="236.6" cy="-18" rx="31.6" ry="18"/>
<text text-anchor="middle" x="236.6" y="-12.57" font-family="Times New Roman,serif" font-size="14.00">NUM</text>
</g>
<!-- 15&#45;&gt;16 -->
<g id="edge12" class="edge">
<title>15&#45;&gt;16</title>
<path fill="none" stroke="black" d="M236.6,-71.7C236.6,-64.41 236.6,-55.73 236.6,-47.54"/>
<polygon fill="black" stroke="black" points="240.1,-47.62 236.6,-37.62 233.1,-47.62 240.1,-47.62"/>
</g>
</g>
</svg>
